<svg id="mermaid-1617807037972" width="100%" xmlns="http://www.w3.org/2000/svg" xmlns:xlink="http://www.w3.org/1999/xlink" height="320.1875" style="max-width: 1684.04296875px;" viewBox="-20 -20 1684.04296875 320.1875"><style>#mermaid-1617807037972{font-family:"trebuchet ms",verdana,arial,sans-serif;font-size:16px;fill:#333;}#mermaid-1617807037972 .error-icon{fill:#552222;}#mermaid-1617807037972 .error-text{fill:#552222;stroke:#552222;}#mermaid-1617807037972 .edge-thickness-normal{stroke-width:2px;}#mermaid-1617807037972 .edge-thickness-thick{stroke-width:3.5px;}#mermaid-1617807037972 .edge-pattern-solid{stroke-dasharray:0;}#mermaid-1617807037972 .edge-pattern-dashed{stroke-dasharray:3;}#mermaid-1617807037972 .edge-pattern-dotted{stroke-dasharray:2;}#mermaid-1617807037972 .marker{fill:#333333;stroke:#333333;}#mermaid-1617807037972 .marker.cross{stroke:#333333;}#mermaid-1617807037972 svg{font-family:"trebuchet ms",verdana,arial,sans-serif;font-size:16px;}#mermaid-1617807037972 g.classGroup text{fill:#9370DB;fill:#131300;stroke:none;font-family:"trebuchet ms",verdana,arial,sans-serif;font-size:10px;}#mermaid-1617807037972 g.classGroup text .title{font-weight:bolder;}#mermaid-1617807037972 .classTitle{font-weight:bolder;}#mermaid-1617807037972 .node rect,#mermaid-1617807037972 .node circle,#mermaid-1617807037972 .node ellipse,#mermaid-1617807037972 .node polygon,#mermaid-1617807037972 .node path{fill:#ECECFF;stroke:#9370DB;stroke-width:1px;}#mermaid-1617807037972 .divider{stroke:#9370DB;stroke:1;}#mermaid-1617807037972 g.clickable{cursor:pointer;}#mermaid-1617807037972 g.classGroup rect{fill:#ECECFF;stroke:#9370DB;}#mermaid-1617807037972 g.classGroup line{stroke:#9370DB;stroke-width:1;}#mermaid-1617807037972 .classLabel .box{stroke:none;stroke-width:0;fill:#ECECFF;opacity:0.5;}#mermaid-1617807037972 .classLabel .label{fill:#9370DB;font-size:10px;}#mermaid-1617807037972 .relation{stroke:#333333;stroke-width:1;fill:none;}#mermaid-1617807037972 .dashed-line{stroke-dasharray:3;}#mermaid-1617807037972 #compositionStart,#mermaid-1617807037972 .composition{fill:#333333 !important;stroke:#333333 !important;stroke-width:1;}#mermaid-1617807037972 #compositionEnd,#mermaid-1617807037972 .composition{fill:#333333 !important;stroke:#333333 !important;stroke-width:1;}#mermaid-1617807037972 #dependencyStart,#mermaid-1617807037972 .dependency{fill:#333333 !important;stroke:#333333 !important;stroke-width:1;}#mermaid-1617807037972 #dependencyStart,#mermaid-1617807037972 .dependency{fill:#333333 !important;stroke:#333333 !important;stroke-width:1;}#mermaid-1617807037972 #extensionStart,#mermaid-1617807037972 .extension{fill:#333333 !important;stroke:#333333 !important;stroke-width:1;}#mermaid-1617807037972 #extensionEnd,#mermaid-1617807037972 .extension{fill:#333333 !important;stroke:#333333 !important;stroke-width:1;}#mermaid-1617807037972 #aggregationStart,#mermaid-1617807037972 .aggregation{fill:#ECECFF !important;stroke:#333333 !important;stroke-width:1;}#mermaid-1617807037972 #aggregationEnd,#mermaid-1617807037972 .aggregation{fill:#ECECFF !important;stroke:#333333 !important;stroke-width:1;}#mermaid-1617807037972 .edgeTerminals{font-size:11px;}#mermaid-1617807037972:root{--mermaid-font-family:"trebuchet ms",verdana,arial,sans-serif;}#mermaid-1617807037972 class{fill:apa;}</style><g></g><defs><marker id="extensionStart" class="extension" refX="0" refY="7" markerWidth="190" markerHeight="240" orient="auto"><path d="M 1,7 L18,13 V 1 Z"></path></marker></defs><defs><marker id="extensionEnd" refX="19" refY="7" markerWidth="20" markerHeight="28" orient="auto"><path d="M 1,1 V 13 L18,7 Z"></path></marker></defs><defs><marker id="compositionStart" class="extension" refX="0" refY="7" markerWidth="190" markerHeight="240" orient="auto"><path d="M 18,7 L9,13 L1,7 L9,1 Z"></path></marker></defs><defs><marker id="compositionEnd" refX="19" refY="7" markerWidth="20" markerHeight="28" orient="auto"><path d="M 18,7 L9,13 L1,7 L9,1 Z"></path></marker></defs><defs><marker id="aggregationStart" class="extension" refX="0" refY="7" markerWidth="190" markerHeight="240" orient="auto"><path d="M 18,7 L9,13 L1,7 L9,1 Z"></path></marker></defs><defs><marker id="aggregationEnd" refX="19" refY="7" markerWidth="20" markerHeight="28" orient="auto"><path d="M 18,7 L9,13 L1,7 L9,1 Z"></path></marker></defs><defs><marker id="dependencyStart" class="extension" refX="0" refY="7" markerWidth="190" markerHeight="240" orient="auto"><path d="M 5,7 L9,13 L1,7 L9,1 Z"></path></marker></defs><defs><marker id="dependencyEnd" refX="19" refY="7" markerWidth="20" markerHeight="28" orient="auto"><path d="M 18,7 L9,13 L14,7 L9,1 Z"></path></marker></defs><g id="classid-RabbitTemplate-1539" class="classGroup" transform="translate(668.16796875,0 )"><rect x="0" y="0" width="84.296875" height="30.0625" class=" "></rect><text y="15" x="0"><tspan class="title" x="5">RabbitTemplate</tspan></text><line x1="0" y1="21.0625" y2="21.0625" x2="84.296875"></line><text x="5" y="31.0625" fill="white" class="classText"></text><line x1="0" y1="26.0625" y2="26.0625" x2="84.296875"></line><text x="5" y="41.0625" fill="white" class="classText"></text></g><g id="classid-BackupController-1540" class="classGroup" transform="translate(31.6015625,85.03125 )"><rect x="0" y="0" width="91.109375" height="30.0625" class=" "></rect><text y="15" x="0"><tspan class="title" x="5">BackupController</tspan></text><line x1="0" y1="21.0625" y2="21.0625" x2="91.109375"></line><text x="5" y="31.0625" fill="white" class="classText"></text><line x1="0" y1="26.0625" y2="26.0625" x2="91.109375"></line><text x="5" y="41.0625" fill="white" class="classText"></text></g><g id="classid-MessagingConfiguration-1541" class="classGroup" transform="translate(0,0 )"><rect x="0" y="0" width="119.46875" height="30.0625" class=" "></rect><text y="15" x="0"><tspan class="title" x="5">MessagingConfiguration</tspan></text><line x1="0" y1="21.0625" y2="21.0625" x2="119.46875"></line><text x="5" y="31.0625" fill="white" class="classText"></text><line x1="0" y1="26.0625" y2="26.0625" x2="119.46875"></line><text x="5" y="41.0625" fill="white" class="classText"></text></g><g id="classid-BackupRequest-1542" class="classGroup" transform="translate(19.1171875,170.0625 )"><rect x="0" y="0" width="81.234375" height="30.0625" class=" "></rect><text y="15" x="0"><tspan class="title" x="5">BackupRequest</tspan></text><line x1="0" y1="21.0625" y2="21.0625" x2="81.234375"></line><text x="5" y="31.0625" fill="white" class="classText"></text><line x1="0" y1="26.0625" y2="26.0625" x2="81.234375"></line><text x="5" y="41.0625" fill="white" class="classText"></text></g><g id="classid-RestoreRequest-1543" class="classGroup" transform="translate(150.3515625,170.0625 )"><rect x="0" y="0" width="83.4375" height="30.0625" class=" "></rect><text y="15" x="0"><tspan class="title" x="5">RestoreRequest</tspan></text><line x1="0" y1="21.0625" y2="21.0625" x2="83.4375"></line><text x="5" y="31.0625" fill="white" class="classText"></text><line x1="0" y1="26.0625" y2="26.0625" x2="83.4375"></line><text x="5" y="41.0625" fill="white" class="classText"></text></g><g id="classid-AbstractJobRepository-1544" class="classGroup" transform="translate(280.953125,85.03125 )"><rect x="0" y="0" width="115.78125" height="30.0625" class=" "></rect><text y="15" x="0"><tspan class="title" x="5">AbstractJobRepository</tspan></text><line x1="0" y1="21.0625" y2="21.0625" x2="115.78125"></line><text x="5" y="31.0625" fill="white" class="classText"></text><line x1="0" y1="26.0625" y2="26.0625" x2="115.78125"></line><text x="5" y="41.0625" fill="white" class="classText"></text></g><g id="classid-RestoreJobController-1545" class="classGroup" transform="translate(283.7890625,170.09375 )"><rect x="0" y="0" width="110.109375" height="30" class=" "></rect><text y="15" x="0"><tspan class="title" x="5">RestoreJobController</tspan></text><line x1="0" y1="21" y2="21" x2="110.109375"></line><text x="5" y="31" fill="white" class="classText"></text><line x1="0" y1="26" y2="26" x2="110.109375"></line><text x="5" y="41" fill="white" class="classText"></text></g><g id="classid-AbstractJob-1546" class="classGroup" transform="translate(251.7265625,250.15625 )"><rect x="0" y="0" width="65.90625" height="30" class=" "></rect><text y="15" x="0"><tspan class="title" x="5">AbstractJob</tspan></text><line x1="0" y1="21" y2="21" x2="65.90625"></line><text x="5" y="31" fill="white" class="classText"></text><line x1="0" y1="26" y2="26" x2="65.90625"></line><text x="5" y="41" fill="white" class="classText"></text></g><g id="classid-JobType-1547" class="classGroup" transform="translate(403.19921875,250.125 )"><rect x="0" y="0" width="49.84375" height="30.0625" class=" "></rect><text y="15" x="0"><tspan class="title" x="5">JobType</tspan></text><line x1="0" y1="21.0625" y2="21.0625" x2="49.84375"></line><text x="5" y="31.0625" fill="white" class="classText"></text><line x1="0" y1="26.0625" y2="26.0625" x2="49.84375"></line><text x="5" y="41.0625" fill="white" class="classText"></text></g><g id="classid-BackupCleanupManager-1548" class="classGroup" transform="translate(522.80078125,85.03125 )"><rect x="0" y="0" width="120.4375" height="30.0625" class=" "></rect><text y="15" x="0"><tspan class="title" x="5">BackupCleanupManager</tspan></text><line x1="0" y1="21.0625" y2="21.0625" x2="120.4375"></line><text x="5" y="31.0625" fill="white" class="classText"></text><line x1="0" y1="26.0625" y2="26.0625" x2="120.4375"></line><text x="5" y="41.0625" fill="white" class="classText"></text></g><g id="classid-BackupJobController-1549" class="classGroup" transform="translate(468.22265625,170.0625 )"><rect x="0" y="0" width="107.90625" height="30.0625" class=" "></rect><text y="15" x="0"><tspan class="title" x="5">BackupJobController</tspan></text><line x1="0" y1="21.0625" y2="21.0625" x2="107.90625"></line><text x="5" y="31.0625" fill="white" class="classText"></text><line x1="0" y1="26.0625" y2="26.0625" x2="107.90625"></line><text x="5" y="41.0625" fill="white" class="classText"></text></g><g id="classid-FileDestination-1550" class="classGroup" transform="translate(791.2109375,250.15625 )"><rect x="0" y="0" width="80.6875" height="30" class=" "></rect><text y="15" x="0"><tspan class="title" x="5">FileDestination</tspan></text><line x1="0" y1="21" y2="21" x2="80.6875"></line><text x="5" y="31" fill="white" class="classText"></text><line x1="0" y1="26" y2="26" x2="80.6875"></line><text x="5" y="41" fill="white" class="classText"></text></g><g id="classid-JobStatus-1551" class="classGroup" transform="translate(545.7890625,250.15625 )"><rect x="0" y="0" width="55.390625" height="30" class=" "></rect><text y="15" x="0"><tspan class="title" x="5">JobStatus</tspan></text><line x1="0" y1="21" y2="21" x2="55.390625"></line><text x="5" y="31" fill="white" class="classText"></text><line x1="0" y1="26" y2="26" x2="55.390625"></line><text x="5" y="41" fill="white" class="classText"></text></g><g id="classid-BackupPlanRepository-1552" class="classGroup" transform="translate(910,85.03125 )"><rect x="0" y="0" width="113.53125" height="30.0625" class=" "></rect><text y="15" x="0"><tspan class="title" x="5">BackupPlanRepository</tspan></text><line x1="0" y1="21.0625" y2="21.0625" x2="113.53125"></line><text x="5" y="31.0625" fill="white" class="classText"></text><line x1="0" y1="26.0625" y2="26.0625" x2="113.53125"></line><text x="5" y="41.0625" fill="white" class="classText"></text></g><g id="classid-BackupPlanController-1553" class="classGroup" transform="translate(750.55859375,170.0625 )"><rect x="0" y="0" width="111.15625" height="30.0625" class=" "></rect><text y="15" x="0"><tspan class="title" x="5">BackupPlanController</tspan></text><line x1="0" y1="21.0625" y2="21.0625" x2="111.15625"></line><text x="5" y="31.0625" fill="white" class="classText"></text><line x1="0" y1="26.0625" y2="26.0625" x2="111.15625"></line><text x="5" y="41.0625" fill="white" class="classText"></text></g><g id="classid-BackupPlanService-1554" class="classGroup" transform="translate(693.23828125,85.03125 )"><rect x="0" y="0" width="97.921875" height="30.0625" class=" "></rect><text y="15" x="0"><tspan class="title" x="5">BackupPlanService</tspan></text><line x1="0" y1="21.0625" y2="21.0625" x2="97.921875"></line><text x="5" y="31.0625" fill="white" class="classText"></text><line x1="0" y1="26.0625" y2="26.0625" x2="97.921875"></line><text x="5" y="41.0625" fill="white" class="classText"></text></g><g id="classid-BackupException-1555" class="classGroup" transform="translate(651.1796875,250.125 )"><rect x="0" y="0" width="90.03125" height="30.0625" class=" "></rect><text y="15" x="0"><tspan class="title" x="5">BackupException</tspan></text><line x1="0" y1="21.0625" y2="21.0625" x2="90.03125"></line><text x="5" y="31.0625" fill="white" class="classText"></text><line x1="0" y1="26.0625" y2="26.0625" x2="90.03125"></line><text x="5" y="41.0625" fill="white" class="classText"></text></g><g id="classid-BackupPlan-1556" class="classGroup" transform="translate(921.8984375,250.125 )"><rect x="0" y="0" width="63.671875" height="30.0625" class=" "></rect><text y="15" x="0"><tspan class="title" x="5">BackupPlan</tspan></text><line x1="0" y1="21.0625" y2="21.0625" x2="63.671875"></line><text x="5" y="31.0625" fill="white" class="classText"></text><line x1="0" y1="26.0625" y2="26.0625" x2="63.671875"></line><text x="5" y="41.0625" fill="white" class="classText"></text></g><g id="classid-BaseController-1557" class="classGroup" transform="translate(1300.59765625,80.0625 )"><rect x="0" y="0" width="126.21875" height="40" class=" "></rect><text y="15" x="0"><tspan x="39.4140625">«abstract»</tspan><tspan class="title" dy="10" x="28.6953125">BaseController</tspan></text><line x1="0" y1="31" y2="31" x2="126.21875"></line><text x="5" y="41" fill="white" class="classText"></text><line x1="0" y1="36" y2="36" x2="126.21875"></line><text x="5" y="51" fill="white" class="classText"></text></g><g id="classid-DestinationController-1558" class="classGroup" transform="translate(1189.1640625,170.09375 )"><rect x="0" y="0" width="110.671875" height="30" class=" "></rect><text y="15" x="0"><tspan class="title" x="5">DestinationController</tspan></text><line x1="0" y1="21" y2="21" x2="110.671875"></line><text x="5" y="31" fill="white" class="classText"></text><line x1="0" y1="26" y2="26" x2="110.671875"></line><text x="5" y="41" fill="white" class="classText"></text></g><g id="classid-FileDestinationRepository-1559" class="classGroup" transform="translate(1120.05078125,85.03125 )"><rect x="0" y="0" width="130.546875" height="30.0625" class=" "></rect><text y="15" x="0"><tspan class="title" x="5">FileDestinationRepository</tspan></text><line x1="0" y1="21.0625" y2="21.0625" x2="130.546875"></line><text x="5" y="31.0625" fill="white" class="classText"></text><line x1="0" y1="26.0625" y2="26.0625" x2="130.546875"></line><text x="5" y="41.0625" fill="white" class="classText"></text></g><g id="classid-S3Client-1560" class="classGroup" transform="translate(1035.5703125,250.15625 )"><rect x="0" y="0" width="48.640625" height="30" class=" "></rect><text y="15" x="0"><tspan class="title" x="5">S3Client</tspan></text><line x1="0" y1="21" y2="21" x2="48.640625"></line><text x="5" y="31" fill="white" class="classText"></text><line x1="0" y1="26" y2="26" x2="48.640625"></line><text x="5" y="41" fill="white" class="classText"></text></g><g id="classid-SwiftClient-1561" class="classGroup" transform="translate(1134.2109375,250.15625 )"><rect x="0" y="0" width="61.265625" height="30" class=" "></rect><text y="15" x="0"><tspan class="title" x="5">SwiftClient</tspan></text><line x1="0" y1="21" y2="21" x2="61.265625"></line><text x="5" y="31" fill="white" class="classText"></text><line x1="0" y1="26" y2="26" x2="61.265625"></line><text x="5" y="41" fill="white" class="classText"></text></g><g id="classid-S3FileDestination-1562" class="classGroup" transform="translate(1261.90234375,250.15625 )"><rect x="0" y="0" width="91.65625" height="30" class=" "></rect><text y="15" x="0"><tspan class="title" x="5">S3FileDestination</tspan></text><line x1="0" y1="21" y2="21" x2="91.65625"></line><text x="5" y="31" fill="white" class="classText"></text><line x1="0" y1="26" y2="26" x2="91.65625"></line><text x="5" y="41" fill="white" class="classText"></text></g><g id="classid-SwiftFileDestination-1563" class="classGroup" transform="translate(1403.55859375,250.15625 )"><rect x="0" y="0" width="104.28125" height="30" class=" "></rect><text y="15" x="0"><tspan class="title" x="5">SwiftFileDestination</tspan></text><line x1="0" y1="21" y2="21" x2="104.28125"></line><text x="5" y="31" fill="white" class="classText"></text><line x1="0" y1="26" y2="26" x2="104.28125"></line><text x="5" y="41" fill="white" class="classText"></text></g><g id="classid-DestinationType-1564" class="classGroup" transform="translate(1557.83984375,250.125 )"><rect x="0" y="0" width="86.203125" height="30.0625" class=" "></rect><text y="15" x="0"><tspan class="title" x="5">DestinationType</tspan></text><line x1="0" y1="21.0625" y2="21.0625" x2="86.203125"></line><text x="5" y="31.0625" fill="white" class="classText"></text><line x1="0" y1="26.0625" y2="26.0625" x2="86.203125"></line><text x="5" y="41.0625" fill="white" class="classText"></text></g><g id="classid-ErrorMessage-1565" class="classGroup" transform="translate(1327.66796875,0 )"><rect x="0" y="0" width="72.078125" height="30.0625" class=" "></rect><text y="15" x="0"><tspan class="title" x="5">ErrorMessage</tspan></text><line x1="0" y1="21.0625" y2="21.0625" x2="72.078125"></line><text x="5" y="31.0625" fill="white" class="classText"></text><line x1="0" y1="26.0625" y2="26.0625" x2="72.078125"></line><text x="5" y="41.0625" fill="white" class="classText"></text></g><path d="M710.31640625,30.0625L710.31640625,34.229166666666664C710.31640625,38.395833333333336,710.31640625,46.729166666666664,612.3821614583334,57.8562223788577C514.4479166666666,68.98327809104875,318.5794270833333,82.90405618209749,220.64518229166666,89.86444522762186L122.7109375,96.82483427314624" id="edge806" class="relation" marker-start="url(#aggregationStart)"></path><path d="M59.734375,30.0625L59.734375,34.229166666666664C59.734375,38.395833333333336,59.734375,46.729166666666664,61.6681224681713,55.890625C63.60186993634259,65.05208333333333,67.46936487268518,75.04166666666667,69.40311234085648,80.03645833333333L71.33685980902777,85.03125" id="edge807" class="relation" marker-start="url(#aggregationStart)"></path><path d="M71.33685980902777,115.09375L69.40311234085648,120.08854166666667C67.46936487268518,125.08333333333333,63.60186993634259,135.07291666666666,61.6681224681713,144.234375C59.734375,153.39583333333334,59.734375,161.72916666666666,59.734375,165.89583333333334L59.734375,170.0625" id="edge808" class="relation dashed-line" marker-end="url(#dependencyEnd)"></path><path d="M115.54073893229167,115.09375L128.29566786024307,120.08854166666667C141.05059678819444,125.08333333333333,166.56045464409723,135.07291666666666,179.31538357204863,144.234375C192.0703125,153.39583333333334,192.0703125,161.72916666666666,192.0703125,165.89583333333334L192.0703125,170.0625" id="edge809" class="relation dashed-line" marker-end="url(#dependencyEnd)"></path><path d="M338.84375,115.09375L338.84375,120.08854166666667C338.84375,125.08333333333333,338.84375,135.07291666666666,338.84375,144.23958333333334C338.84375,153.40625,338.84375,161.75,338.84375,165.921875L338.84375,170.09375" id="edge810" class="relation" marker-start="url(#aggregationStart)"></path><path d="M322.2951551522248,200.09375L317.6925772101874,204.265625C313.0899992681499,208.4375,303.88484338407494,216.78125,298.2401108752927,225.125C292.59537836651054,233.46875,290.5110692330211,241.8125,289.46891466627636,245.984375L288.42676009953163,250.15625" id="edge811" class="relation dashed-line" marker-end="url(#dependencyEnd)"></path><path d="M387.7752488290398,200.09375L401.3843219408665,204.265625C414.9933950526932,208.4375,442.2115412763466,216.78125,451.5209949502342,225.11979166666666C460.8304486241218,233.45833333333334,452.2312097482436,241.79166666666666,447.9315903103045,245.95833333333334L443.63197087236534,250.125" id="edge812" class="relation dashed-line" marker-end="url(#dependencyEnd)"></path><path d="M583.01953125,115.09375L583.01953125,120.08854166666667C583.01953125,125.08333333333333,583.01953125,135.07291666666666,576.6865882367291,144.234375C570.3536452234583,153.39583333333334,557.6877591969165,161.72916666666666,551.3548161836457,165.89583333333334L545.0218731703748,170.0625" id="edge813" class="relation" marker-start="url(#aggregationStart)"></path><path d="M372.00514051649304,115.09375L383.02446605541087,120.08854166666667C394.0437915943287,125.08333333333333,416.0824426721644,135.07291666666666,435.85062977756667,144.234375C455.61881688296904,153.39583333333334,473.11654001593814,161.72916666666666,481.86540158242263,165.89583333333334L490.6142631489071,170.0625" id="edge814" class="relation" marker-start="url(#aggregationStart)"></path><path d="M468.22265625,193.82039696412505L435.9654947916667,199.03783080343752C403.7083333333333,204.25526464275003,339.1940104166667,214.69013232137502,307.97900352507804,224.07944116068748C276.76399663348946,233.46875,278.8483057669789,241.8125,279.89046033372364,245.984375L280.93261490046837,250.15625" id="edge815" class="relation dashed-line" marker-end="url(#dependencyEnd)"></path><path d="M576.12890625,191.08542343953187L627.21484375,196.75868619960988C678.30078125,202.4319489596879,780.47265625,213.77847447984394,826.2342423521662,223.62361223992198C871.9958284543326,233.46875,861.347125658665,241.8125,856.0227742608313,245.984375L850.6984228629976,250.15625" id="edge816" class="relation dashed-line" marker-end="url(#dependencyEnd)"></path><path d="M541.4415373731459,200.125L546.7820103109549,204.29166666666666C552.122483248764,208.45833333333334,562.803429124382,216.79166666666666,568.1439020621909,225.13020833333334C573.484375,233.46875,573.484375,241.8125,573.484375,245.984375L573.484375,250.15625" id="edge817" class="relation dashed-line" marker-end="url(#dependencyEnd)"></path><path d="M470.36138453844654,200.125L455.99841940703874,204.29166666666666C441.63545427563105,208.45833333333334,412.90952401281555,216.79166666666666,403.1198089464611,225.125C393.3300938801067,233.45833333333334,402.4765940102134,241.79166666666666,407.0498440752667,245.95833333333334L411.62309414032006,250.125" id="edge818" class="relation dashed-line" marker-end="url(#dependencyEnd)"></path><path d="M963.4253472222222,115.09375L962.3153935185186,120.08854166666667C961.2054398148148,125.08333333333333,958.9855324074074,135.07291666666666,942.0337818287038,144.27783603684205C925.08203125,153.48275540701744,893.3984375,161.9030108140349,877.556640625,166.11313851754363L861.71484375,170.32326622105236" id="edge819" class="relation" marker-start="url(#aggregationStart)"></path><path d="M742.19921875,115.09375L742.19921875,120.08854166666667C742.19921875,125.08333333333333,742.19921875,135.07291666666666,748.854175814793,144.234375C755.5091328795862,153.39583333333334,768.8190470091726,161.72916666666666,775.4740040739656,165.89583333333334L782.1289611387588,170.0625" id="edge820" class="relation" marker-start="url(#aggregationStart)"></path><path d="M764.8550509855581,200.125L753.411761237965,204.29166666666666C741.968471490372,208.45833333333334,719.0818919951861,216.79166666666666,707.638602247593,225.125C696.1953125,233.45833333333334,696.1953125,241.79166666666666,696.1953125,245.95833333333334L696.1953125,250.125" id="edge821" class="relation dashed-line" marker-end="url(#dependencyEnd)"></path><path d="M861.5578527517564,200.125L876.920606459797,204.29166666666666C892.2833601678376,208.45833333333334,923.0088675839188,216.79166666666666,938.3716212919594,225.125C953.734375,233.45833333333334,953.734375,241.79166666666666,953.734375,245.95833333333334L953.734375,250.125" id="edge822" class="relation dashed-line" marker-end="url(#dependencyEnd)"></path><path d="M1363.70703125,120.0625L1363.70703125,124.22916666666667C1363.70703125,128.39583333333334,1363.70703125,136.72916666666666,1351.283816049473,145.06770833333334C1338.8606008489462,153.40625,1314.0141704478922,161.75,1301.5909552473652,165.921875L1289.1677400468384,170.09375" id="edge823" class="relation" marker-start="url(#extensionStart)"></path><path d="M1185.32421875,115.09375L1185.32421875,120.08854166666667C1185.32421875,125.08333333333333,1185.32421875,135.07291666666666,1191.4912498170374,144.23958333333334C1197.6582808840749,153.40625,1209.99234301815,161.75,1216.1593740851874,165.921875L1222.3264051522249,170.09375" id="edge824" class="relation" marker-start="url(#aggregationStart)"></path><path d="M992.1582600911458,115.09375L1000.5960761176216,120.08854166666667C1009.0338921440972,125.08333333333333,1025.9095241970488,135.07291666666666,1058.7438245985243,144.90930425647284C1091.578125,154.745691846279,1140.37109375,164.42888369255795,1164.767578125,169.27047961569744L1189.1640625,174.11207553883693" id="edge825" class="relation" marker-start="url(#aggregationStart)"></path><path d="M1189.1640625,197.09296048455354L1167.6184895833333,201.76496707046127C1146.0729166666667,206.43697365636902,1102.9817708333333,215.7809868281845,1081.4361979166667,224.62486841409225C1059.890625,233.46875,1059.890625,241.8125,1059.890625,245.984375L1059.890625,250.15625" id="edge826" class="relation dashed-line" marker-end="url(#dependencyEnd)"></path><path d="M1214.652224824356,200.09375L1206.35081235363,204.265625C1198.049399882904,208.4375,1181.446574941452,216.78125,1173.145162470726,225.125C1164.84375,233.46875,1164.84375,241.8125,1164.84375,245.984375L1164.84375,250.15625" id="edge827" class="relation dashed-line" marker-end="url(#dependencyEnd)"></path><path d="M1189.1640625,189.80061161603587L1119.94921875,195.68800968002992C1050.734375,201.57540774402392,912.3046875,213.35020387201197,849.1009587236534,223.40947693600597C785.8972299473068,233.46875,797.9194598946136,241.8125,803.930574868267,245.984375L809.9416898419204,250.15625" id="edge828" class="relation dashed-line" marker-end="url(#dependencyEnd)"></path><path d="M1268.1929156908666,200.09375L1274.7825078673889,204.265625C1281.3721000439111,208.4375,1294.5512843969555,216.78125,1301.1408765734777,225.125C1307.73046875,233.46875,1307.73046875,241.8125,1307.73046875,245.984375L1307.73046875,250.15625" id="edge829" class="relation dashed-line" marker-end="url(#dependencyEnd)"></path><path d="M1299.8359375,195.58226771875636L1325.8131510416667,200.50605643229696C1351.7903645833333,205.4298451458376,1403.7447916666667,215.2774225729188,1429.7220052083333,224.3730862864594C1455.69921875,233.46875,1455.69921875,241.8125,1455.69921875,245.984375L1455.69921875,250.15625" id="edge830" class="relation dashed-line" marker-end="url(#dependencyEnd)"></path><path d="M1299.8359375,191.30842290052493L1350.0201822916667,196.94451908377076C1400.2044270833333,202.5806152670166,1500.5729166666667,213.8528076335083,1550.7571614583333,223.6555704834208C1600.94140625,233.45833333333334,1600.94140625,241.79166666666666,1600.94140625,245.95833333333334L1600.94140625,250.125" id="edge831" class="relation dashed-line" marker-end="url(#dependencyEnd)"></path><path d="M1363.70703125,30.0625L1363.70703125,34.229166666666664C1363.70703125,38.395833333333336,1363.70703125,46.729166666666664,1363.70703125,55.0625C1363.70703125,63.395833333333336,1363.70703125,71.72916666666667,1363.70703125,75.89583333333333L1363.70703125,80.0625" id="edge832" class="relation dashed-line" marker-start="url(#dependencyStart)"></path></svg>