<svg id="mermaid-1617889946820" width="100%" xmlns="http://www.w3.org/2000/svg" xmlns:xlink="http://www.w3.org/1999/xlink" height="470.375" style="max-width: 2182.203125px;" viewBox="-20 -20 2182.203125 470.375"><style>#mermaid-1617889946820{font-family:"trebuchet ms",verdana,arial,sans-serif;font-size:16px;fill:#333;}#mermaid-1617889946820 .error-icon{fill:#552222;}#mermaid-1617889946820 .error-text{fill:#552222;stroke:#552222;}#mermaid-1617889946820 .edge-thickness-normal{stroke-width:2px;}#mermaid-1617889946820 .edge-thickness-thick{stroke-width:3.5px;}#mermaid-1617889946820 .edge-pattern-solid{stroke-dasharray:0;}#mermaid-1617889946820 .edge-pattern-dashed{stroke-dasharray:3;}#mermaid-1617889946820 .edge-pattern-dotted{stroke-dasharray:2;}#mermaid-1617889946820 .marker{fill:#333333;stroke:#333333;}#mermaid-1617889946820 .marker.cross{stroke:#333333;}#mermaid-1617889946820 svg{font-family:"trebuchet ms",verdana,arial,sans-serif;font-size:16px;}#mermaid-1617889946820 g.classGroup text{fill:#9370DB;fill:#131300;stroke:none;font-family:"trebuchet ms",verdana,arial,sans-serif;font-size:10px;}#mermaid-1617889946820 g.classGroup text .title{font-weight:bolder;}#mermaid-1617889946820 .classTitle{font-weight:bolder;}#mermaid-1617889946820 .node rect,#mermaid-1617889946820 .node circle,#mermaid-1617889946820 .node ellipse,#mermaid-1617889946820 .node polygon,#mermaid-1617889946820 .node path{fill:#ECECFF;stroke:#9370DB;stroke-width:1px;}#mermaid-1617889946820 .divider{stroke:#9370DB;stroke:1;}#mermaid-1617889946820 g.clickable{cursor:pointer;}#mermaid-1617889946820 g.classGroup rect{fill:#ECECFF;stroke:#9370DB;}#mermaid-1617889946820 g.classGroup line{stroke:#9370DB;stroke-width:1;}#mermaid-1617889946820 .classLabel .box{stroke:none;stroke-width:0;fill:#ECECFF;opacity:0.5;}#mermaid-1617889946820 .classLabel .label{fill:#9370DB;font-size:10px;}#mermaid-1617889946820 .relation{stroke:#333333;stroke-width:1;fill:none;}#mermaid-1617889946820 .dashed-line{stroke-dasharray:3;}#mermaid-1617889946820 #compositionStart,#mermaid-1617889946820 .composition{fill:#333333 !important;stroke:#333333 !important;stroke-width:1;}#mermaid-1617889946820 #compositionEnd,#mermaid-1617889946820 .composition{fill:#333333 !important;stroke:#333333 !important;stroke-width:1;}#mermaid-1617889946820 #dependencyStart,#mermaid-1617889946820 .dependency{fill:#333333 !important;stroke:#333333 !important;stroke-width:1;}#mermaid-1617889946820 #dependencyStart,#mermaid-1617889946820 .dependency{fill:#333333 !important;stroke:#333333 !important;stroke-width:1;}#mermaid-1617889946820 #extensionStart,#mermaid-1617889946820 .extension{fill:#333333 !important;stroke:#333333 !important;stroke-width:1;}#mermaid-1617889946820 #extensionEnd,#mermaid-1617889946820 .extension{fill:#333333 !important;stroke:#333333 !important;stroke-width:1;}#mermaid-1617889946820 #aggregationStart,#mermaid-1617889946820 .aggregation{fill:#ECECFF !important;stroke:#333333 !important;stroke-width:1;}#mermaid-1617889946820 #aggregationEnd,#mermaid-1617889946820 .aggregation{fill:#ECECFF !important;stroke:#333333 !important;stroke-width:1;}#mermaid-1617889946820 .edgeTerminals{font-size:11px;}#mermaid-1617889946820:root{--mermaid-font-family:"trebuchet ms",verdana,arial,sans-serif;}#mermaid-1617889946820 class{fill:apa;}</style><g></g><defs><marker id="extensionStart" class="extension" refX="0" refY="7" markerWidth="190" markerHeight="240" orient="auto"><path d="M 1,7 L18,13 V 1 Z"></path></marker></defs><defs><marker id="extensionEnd" refX="19" refY="7" markerWidth="20" markerHeight="28" orient="auto"><path d="M 1,1 V 13 L18,7 Z"></path></marker></defs><defs><marker id="compositionStart" class="extension" refX="0" refY="7" markerWidth="190" markerHeight="240" orient="auto"><path d="M 18,7 L9,13 L1,7 L9,1 Z"></path></marker></defs><defs><marker id="compositionEnd" refX="19" refY="7" markerWidth="20" markerHeight="28" orient="auto"><path d="M 18,7 L9,13 L1,7 L9,1 Z"></path></marker></defs><defs><marker id="aggregationStart" class="extension" refX="0" refY="7" markerWidth="190" markerHeight="240" orient="auto"><path d="M 18,7 L9,13 L1,7 L9,1 Z"></path></marker></defs><defs><marker id="aggregationEnd" refX="19" refY="7" markerWidth="20" markerHeight="28" orient="auto"><path d="M 18,7 L9,13 L1,7 L9,1 Z"></path></marker></defs><defs><marker id="dependencyStart" class="extension" refX="0" refY="7" markerWidth="190" markerHeight="240" orient="auto"><path d="M 5,7 L9,13 L1,7 L9,1 Z"></path></marker></defs><defs><marker id="dependencyEnd" refX="19" refY="7" markerWidth="20" markerHeight="28" orient="auto"><path d="M 18,7 L9,13 L14,7 L9,1 Z"></path></marker></defs><g id="classid-BackupPlanRepository-1604" class="classGroup" transform="translate(73.5390625,80.0625 )"><rect x="0" y="0" width="113.53125" height="30.0625" class=" "></rect><text y="15" x="0"><tspan class="title" x="5">BackupPlanRepository</tspan></text><line x1="0" y1="21.0625" y2="21.0625" x2="113.53125"></line><text x="5" y="31.0625" fill="white" class="classText"></text><line x1="0" y1="26.0625" y2="26.0625" x2="113.53125"></line><text x="5" y="41.0625" fill="white" class="classText"></text></g><g id="classid-BackupPlanController-1605" class="classGroup" transform="translate(90.015625,320.25 )"><rect x="0" y="0" width="111.15625" height="30.0625" class=" "></rect><text y="15" x="0"><tspan class="title" x="5">BackupPlanController</tspan></text><line x1="0" y1="21.0625" y2="21.0625" x2="111.15625"></line><text x="5" y="31.0625" fill="white" class="classText"></text><line x1="0" y1="26.0625" y2="26.0625" x2="111.15625"></line><text x="5" y="41.0625" fill="white" class="classText"></text></g><g id="classid-BackupPlanService-1606" class="classGroup" transform="translate(233.30859375,240.1875 )"><rect x="0" y="0" width="97.921875" height="30.0625" class=" "></rect><text y="15" x="0"><tspan class="title" x="5">BackupPlanService</tspan></text><line x1="0" y1="21.0625" y2="21.0625" x2="97.921875"></line><text x="5" y="31.0625" fill="white" class="classText"></text><line x1="0" y1="26.0625" y2="26.0625" x2="97.921875"></line><text x="5" y="41.0625" fill="white" class="classText"></text></g><g id="classid-BackupException-1607" class="classGroup" transform="translate(0,400.3125 )"><rect x="0" y="0" width="90.03125" height="30.0625" class=" "></rect><text y="15" x="0"><tspan class="title" x="5">BackupException</tspan></text><line x1="0" y1="21.0625" y2="21.0625" x2="90.03125"></line><text x="5" y="31.0625" fill="white" class="classText"></text><line x1="0" y1="26.0625" y2="26.0625" x2="90.03125"></line><text x="5" y="41.0625" fill="white" class="classText"></text></g><g id="classid-BackupPlan-1608" class="classGroup" transform="translate(374.82421875,400.3125 )"><rect x="0" y="0" width="63.671875" height="30.0625" class=" "></rect><text y="15" x="0"><tspan class="title" x="5">BackupPlan</tspan></text><line x1="0" y1="21.0625" y2="21.0625" x2="63.671875"></line><text x="5" y="31.0625" fill="white" class="classText"></text><line x1="0" y1="26.0625" y2="26.0625" x2="63.671875"></line><text x="5" y="41.0625" fill="white" class="classText"></text></g><g id="classid-BackupSchedulingService-1609" class="classGroup" transform="translate(291.34765625,160.125 )"><rect x="0" y="0" width="128.34375" height="30.0625" class=" "></rect><text y="15" x="0"><tspan class="title" x="5">BackupSchedulingService</tspan></text><line x1="0" y1="21.0625" y2="21.0625" x2="128.34375"></line><text x="5" y="31.0625" fill="white" class="classText"></text><line x1="0" y1="26.0625" y2="26.0625" x2="128.34375"></line><text x="5" y="41.0625" fill="white" class="classText"></text></g><g id="classid-FileDestinationRepository-1610" class="classGroup" transform="translate(710.43359375,160.125 )"><rect x="0" y="0" width="130.546875" height="30.0625" class=" "></rect><text y="15" x="0"><tspan class="title" x="5">FileDestinationRepository</tspan></text><line x1="0" y1="21.0625" y2="21.0625" x2="130.546875"></line><text x="5" y="31.0625" fill="white" class="classText"></text><line x1="0" y1="26.0625" y2="26.0625" x2="130.546875"></line><text x="5" y="41.0625" fill="white" class="classText"></text></g><g id="classid-BackupServiceManager-1611" class="classGroup" transform="translate(1309.80078125,320.25 )"><rect x="0" y="0" width="116.921875" height="30.0625" class=" "></rect><text y="15" x="0"><tspan class="title" x="5">BackupServiceManager</tspan></text><line x1="0" y1="21.0625" y2="21.0625" x2="116.921875"></line><text x="5" y="31.0625" fill="white" class="classText"></text><line x1="0" y1="26.0625" y2="26.0625" x2="116.921875"></line><text x="5" y="41.0625" fill="white" class="classText"></text></g><g id="classid-MongoRepository-1612" class="classGroup" transform="translate(276.0546875,0 )"><rect x="0" y="0" width="89.5625" height="30.0625" class=" "></rect><text y="15" x="0"><tspan class="title" x="5">MongoRepository</tspan></text><line x1="0" y1="21.0625" y2="21.0625" x2="89.5625"></line><text x="5" y="31.0625" fill="white" class="classText"></text><line x1="0" y1="26.0625" y2="26.0625" x2="89.5625"></line><text x="5" y="41.0625" fill="white" class="classText"></text></g><g id="classid-MessagingConfiguration-1613" class="classGroup" transform="translate(237.0703125,80.0625 )"><rect x="0" y="0" width="119.46875" height="30.0625" class=" "></rect><text y="15" x="0"><tspan class="title" x="5">MessagingConfiguration</tspan></text><line x1="0" y1="21.0625" y2="21.0625" x2="119.46875"></line><text x="5" y="31.0625" fill="white" class="classText"></text><line x1="0" y1="26.0625" y2="26.0625" x2="119.46875"></line><text x="5" y="41.0625" fill="white" class="classText"></text></g><g id="classid-RabbitTemplate-1614" class="classGroup" transform="translate(475.25390625,80.0625 )"><rect x="0" y="0" width="84.296875" height="30.0625" class=" "></rect><text y="15" x="0"><tspan class="title" x="5">RabbitTemplate</tspan></text><line x1="0" y1="21.0625" y2="21.0625" x2="84.296875"></line><text x="5" y="31.0625" fill="white" class="classText"></text><line x1="0" y1="26.0625" y2="26.0625" x2="84.296875"></line><text x="5" y="41.0625" fill="white" class="classText"></text></g><g id="classid-ThreadPoolTaskScheduler-1615" class="classGroup" transform="translate(609.55078125,80.09375 )"><rect x="0" y="0" width="131.15625" height="30" class=" "></rect><text y="15" x="0"><tspan class="title" x="5">ThreadPoolTaskScheduler</tspan></text><line x1="0" y1="21" y2="21" x2="131.15625"></line><text x="5" y="31" fill="white" class="classText"></text><line x1="0" y1="26" y2="26" x2="131.15625"></line><text x="5" y="41" fill="white" class="classText"></text></g><g id="classid-BackupRequest-1616" class="classGroup" transform="translate(1855.734375,400.3125 )"><rect x="0" y="0" width="81.234375" height="30.0625" class=" "></rect><text y="15" x="0"><tspan class="title" x="5">BackupRequest</tspan></text><line x1="0" y1="21.0625" y2="21.0625" x2="81.234375"></line><text x="5" y="31.0625" fill="white" class="classText"></text><line x1="0" y1="26.0625" y2="26.0625" x2="81.234375"></line><text x="5" y="41.0625" fill="white" class="classText"></text></g><g id="classid-AbstractServiceManager-1617" class="classGroup" transform="translate(1094.9765625,240.1875 )"><rect x="0" y="0" width="122.40625" height="30.0625" class=" "></rect><text y="15" x="0"><tspan class="title" x="5">AbstractServiceManager</tspan></text><line x1="0" y1="21.0625" y2="21.0625" x2="122.40625"></line><text x="5" y="31.0625" fill="white" class="classText"></text><line x1="0" y1="26.0625" y2="26.0625" x2="122.40625"></line><text x="5" y="41.0625" fill="white" class="classText"></text></g><g id="classid-BackupCleanupManager-1618" class="classGroup" transform="translate(1722.2265625,240.1875 )"><rect x="0" y="0" width="120.4375" height="30.0625" class=" "></rect><text y="15" x="0"><tspan class="title" x="5">BackupCleanupManager</tspan></text><line x1="0" y1="21.0625" y2="21.0625" x2="120.4375"></line><text x="5" y="31.0625" fill="white" class="classText"></text><line x1="0" y1="26.0625" y2="26.0625" x2="120.4375"></line><text x="5" y="41.0625" fill="white" class="classText"></text></g><g id="classid-CredentialService-1619" class="classGroup" transform="translate(693.484375,400.34375 )"><rect x="0" y="0" width="93.078125" height="30" class=" "></rect><text y="15" x="0"><tspan class="title" x="5">CredentialService</tspan></text><line x1="0" y1="21" y2="21" x2="93.078125"></line><text x="5" y="31" fill="white" class="classText"></text><line x1="0" y1="26" y2="26" x2="93.078125"></line><text x="5" y="41" fill="white" class="classText"></text></g><g id="classid-BackupRequestException-1620" class="classGroup" transform="translate(836.5625,400.3125 )"><rect x="0" y="0" width="127.65625" height="30.0625" class=" "></rect><text y="15" x="0"><tspan class="title" x="5">BackupRequestException</tspan></text><line x1="0" y1="21.0625" y2="21.0625" x2="127.65625"></line><text x="5" y="31.0625" fill="white" class="classText"></text><line x1="0" y1="26.0625" y2="26.0625" x2="127.65625"></line><text x="5" y="41.0625" fill="white" class="classText"></text></g><g id="classid-BackupExecutorService-1621" class="classGroup" transform="translate(1014.21875,400.3125 )"><rect x="0" y="0" width="119.75" height="30.0625" class=" "></rect><text y="15" x="0"><tspan class="title" x="5">BackupExecutorService</tspan></text><line x1="0" y1="21.0625" y2="21.0625" x2="119.75"></line><text x="5" y="31.0625" fill="white" class="classText"></text><line x1="0" y1="26.0625" y2="26.0625" x2="119.75"></line><text x="5" y="41.0625" fill="white" class="classText"></text></g><g id="classid-AgentBackupResponse-1622" class="classGroup" transform="translate(1183.96875,400.3125 )"><rect x="0" y="0" width="114.1875" height="30.0625" class=" "></rect><text y="15" x="0"><tspan class="title" x="5">AgentBackupResponse</tspan></text><line x1="0" y1="21.0625" y2="21.0625" x2="114.1875"></line><text x="5" y="31.0625" fill="white" class="classText"></text><line x1="0" y1="26.0625" y2="26.0625" x2="114.1875"></line><text x="5" y="41.0625" fill="white" class="classText"></text></g><g id="classid-AbstractJob-1623" class="classGroup" transform="translate(1348.15625,400.34375 )"><rect x="0" y="0" width="65.90625" height="30" class=" "></rect><text y="15" x="0"><tspan class="title" x="5">AbstractJob</tspan></text><line x1="0" y1="21" y2="21" x2="65.90625"></line><text x="5" y="31" fill="white" class="classText"></text><line x1="0" y1="26" y2="26" x2="65.90625"></line><text x="5" y="41" fill="white" class="classText"></text></g><g id="classid-BackupJob-1624" class="classGroup" transform="translate(1464.0625,400.3125 )"><rect x="0" y="0" width="60.421875" height="30.0625" class=" "></rect><text y="15" x="0"><tspan class="title" x="5">BackupJob</tspan></text><line x1="0" y1="21.0625" y2="21.0625" x2="60.421875"></line><text x="5" y="31.0625" fill="white" class="classText"></text><line x1="0" y1="26.0625" y2="26.0625" x2="60.421875"></line><text x="5" y="41.0625" fill="white" class="classText"></text></g><g id="classid-EndpointCredential-1625" class="classGroup" transform="translate(1574.484375,400.3125 )"><rect x="0" y="0" width="100.5625" height="30.0625" class=" "></rect><text y="15" x="0"><tspan class="title" x="5">EndpointCredential</tspan></text><line x1="0" y1="21.0625" y2="21.0625" x2="100.5625"></line><text x="5" y="31.0625" fill="white" class="classText"></text><line x1="0" y1="26.0625" y2="26.0625" x2="100.5625"></line><text x="5" y="41.0625" fill="white" class="classText"></text></g><g id="classid-FileDestination-1626" class="classGroup" transform="translate(1725.046875,400.34375 )"><rect x="0" y="0" width="80.6875" height="30" class=" "></rect><text y="15" x="0"><tspan class="title" x="5">FileDestination</tspan></text><line x1="0" y1="21" y2="21" x2="80.6875"></line><text x="5" y="31" fill="white" class="classText"></text><line x1="0" y1="26" y2="26" x2="80.6875"></line><text x="5" y="41" fill="white" class="classText"></text></g><g id="classid-JobStatus-1627" class="classGroup" transform="translate(1986.96875,400.34375 )"><rect x="0" y="0" width="55.390625" height="30" class=" "></rect><text y="15" x="0"><tspan class="title" x="5">JobStatus</tspan></text><line x1="0" y1="21" y2="21" x2="55.390625"></line><text x="5" y="31" fill="white" class="classText"></text><line x1="0" y1="26" y2="26" x2="55.390625"></line><text x="5" y="41" fill="white" class="classText"></text></g><g id="classid-JobType-1628" class="classGroup" transform="translate(2092.359375,400.3125 )"><rect x="0" y="0" width="49.84375" height="30.0625" class=" "></rect><text y="15" x="0"><tspan class="title" x="5">JobType</tspan></text><line x1="0" y1="21.0625" y2="21.0625" x2="49.84375"></line><text x="5" y="31.0625" fill="white" class="classText"></text><line x1="0" y1="26.0625" y2="26.0625" x2="49.84375"></line><text x="5" y="41.0625" fill="white" class="classText"></text></g><path d="M122.79492949843872,110.125L120.71322249869894,114.29166666666667C118.63151549895913,118.45833333333333,114.46810149947957,126.79166666666667,112.38639449973978,137.63020833333334C110.3046875,148.46875,110.3046875,161.8125,110.3046875,175.15625C110.3046875,188.5,110.3046875,201.84375,110.3046875,215.1875C110.3046875,228.53125,110.3046875,241.875,110.3046875,255.21875C110.3046875,268.5625,110.3046875,281.90625,113.97776192102525,292.7447916666667C117.65083634205048,303.5833333333333,124.99698518410095,311.9166666666667,128.6700596051262,316.0833333333333L132.34313402615143,320.25" id="edge1011" class="relation" marker-start="url(#aggregationStart)"></path><path d="M247.25528456772054,270.25L237.54932568143377,274.4166666666667C227.84336679514703,278.5833333333333,208.4314490225735,286.9166666666667,194.20550249642204,295.25C179.97955597027064,303.5833333333333,170.93958069054125,311.9166666666667,166.41959305067655,316.0833333333333L161.89960541081186,320.25" id="edge1012" class="relation" marker-start="url(#aggregationStart)"></path><path d="M104.07300204918033,350.3125L92.56343920765028,354.4791666666667C81.05387636612022,358.6458333333333,58.03475068306011,366.9791666666667,47.566041341399945,375.3125C37.09733199973979,383.6458333333333,39.17903899947957,391.9791666666667,40.21989249934946,396.1458333333333L41.26074599921936,400.3125" id="edge1013" class="relation dashed-line" marker-end="url(#dependencyEnd)"></path><path d="M145.59375,350.3125L145.59375,354.4791666666667C145.59375,358.6458333333333,145.59375,366.9791666666667,183.798828125,377.0041015634741C222.00390625,387.0290364602816,298.4140625,398.74557292056323,336.619140625,404.603841150704L374.82421875,410.46210938084477" id="edge1014" class="relation dashed-line" marker-end="url(#dependencyEnd)"></path><path d="M139.19025663544107,110.125L141.65333886286757,114.29166666666667C144.11642109029404,118.45833333333333,149.04258554514703,126.79166666666667,151.5056677725735,137.63020833333334C153.96875,148.46875,153.96875,161.8125,153.96875,175.15625C153.96875,188.5,153.96875,201.84375,167.3229817200104,212.68229166666666C180.67721344002084,223.52083333333334,207.38567688004164,231.85416666666666,220.73990860005208,236.02083333333334L234.09414032006245,240.1875" id="edge1015" class="relation" marker-start="url(#aggregationStart)"></path><path d="M324.9598031323185,190.1875L316.48863802693205,194.35416666666666C308.0174729215457,198.52083333333334,291.0751427107728,206.85416666666666,283.45089082422584,215.1875C275.82663893767887,223.52083333333334,277.5204653753578,231.85416666666666,278.36737859419725,236.02083333333334L279.2142918130367,240.1875" id="edge1016" class="relation" marker-start="url(#aggregationStart)"></path><path d="M710.43359375,187.03595070860268L684.6536458333334,191.72787559050224C658.8736979166666,196.4198004724018,607.3138020833334,205.80365023620092,544.11328125,215.97300800460562C480.9127604166667,226.1423657730103,406.0716145833333,237.09723154602068,368.6510416666667,242.57466443252585L331.23046875,248.05209731903102" id="edge1017" class="relation" marker-start="url(#aggregationStart)"></path><path d="M331.23046875,260.4653875362061L385.3313802083333,266.2628229468384C439.4322916666667,272.06025835747073,547.6341145833334,283.65512917873536,710.7291666666666,295.5769522894296C873.82421875,307.4987754001239,1091.8125,319.74755080024784,1200.806640625,325.8719385003098L1309.80078125,331.99632620037175" id="edge1018" class="relation" marker-end="url(#aggregationEnd)"></path><path d="M296.75075014637,270.25L300.7649480386417,274.4166666666667C304.77914593091333,278.5833333333333,312.8075417154567,286.9166666666667,316.8217396077284,297.7552083333333C320.8359375,308.59375,320.8359375,321.9375,320.8359375,335.28125C320.8359375,348.625,320.8359375,361.96875,329.833984375,372.83761122616175C338.83203125,383.70647245232357,356.828125,392.100444904647,365.826171875,396.2974311308088L374.82421875,400.49441735697053" id="edge1019" class="relation dashed-line" marker-end="url(#dependencyEnd)"></path><path d="M276.0546875,24.43993972445465L251.76302083333334,29.543699770378876C227.47135416666666,34.6474598163031,178.88802083333334,44.854979908151556,154.59635416666666,54.125406620742446C130.3046875,63.395833333333336,130.3046875,71.72916666666667,130.3046875,75.89583333333333L130.3046875,80.0625" id="edge1020" class="relation" marker-start="url(#extensionStart)"></path><path d="M157.8091761807182,110.125L165.43342806726517,114.29166666666667C173.0576799538121,118.45833333333333,188.30618372690606,126.79166666666667,211.74774956088993,135.125C235.1893153948738,143.45833333333334,266.8239432897476,151.79166666666666,282.6412572371845,155.95833333333334L298.4585711846214,160.125" id="edge1021" class="relation" marker-start="url(#aggregationStart)"></path><path d="M296.8046875,110.125L296.8046875,114.29166666666667C296.8046875,118.45833333333333,296.8046875,126.79166666666667,302.91604256115016,135.125C309.02739762230027,143.45833333333334,321.2501077446006,151.79166666666666,327.3614628057507,155.95833333333334L333.47281786690087,160.125" id="edge1022" class="relation" marker-start="url(#aggregationStart)"></path><path d="M517.40234375,110.125L517.40234375,114.29166666666667C517.40234375,118.45833333333333,517.40234375,126.79166666666667,500.5527145540593,135.125C483.70308535811864,143.45833333333334,450.0038269662373,151.79166666666666,433.1541977702966,155.95833333333334L416.304568574356,160.125" id="edge1023" class="relation" marker-start="url(#aggregationStart)"></path><path d="M675.12890625,110.09375L675.12890625,114.265625C675.12890625,118.4375,675.12890625,126.78125,632.5559895833334,136.28540622708385C589.9830729166666,145.78956245416768,504.8372395833333,156.4541249083354,462.2643229166667,161.78640613541924L419.69140625,167.11868736250307" id="edge1024" class="relation" marker-start="url(#aggregationStart)"></path><path d="M291.34765625,183.70482563467613L251.958984375,188.95193802889676C212.5703125,194.19905042311743,133.79296875,204.6932752115587,94.404296875,216.61226260577936C55.015625,228.53125,55.015625,241.875,55.015625,255.21875C55.015625,268.5625,55.015625,281.90625,55.015625,295.25C55.015625,308.59375,55.015625,321.9375,55.015625,335.28125C55.015625,348.625,55.015625,361.96875,53.97477150013011,372.8072916666667C52.93391800026021,383.6458333333333,50.852211000520434,391.9791666666667,49.81135750065053,396.1458333333333L48.77050400078064,400.3125" id="edge1025" class="relation dashed-line" marker-end="url(#dependencyEnd)"></path><path d="M419.69140625,185.34153621432L451.0319010416667,190.31586351193334C482.3723958333333,195.29019080954666,545.0533854166666,205.23884540477334,576.3938802083334,216.8850477023867C607.734375,228.53125,607.734375,241.875,607.734375,255.21875C607.734375,268.5625,607.734375,281.90625,607.734375,295.25C607.734375,308.59375,607.734375,321.9375,607.734375,335.28125C607.734375,348.625,607.734375,361.96875,579.5279947916666,374.25614679456044C551.3216145833334,386.54354358912093,494.9088541666667,397.7745871782419,466.7024739583333,403.39010897280235L438.49609375,409.0056307673628" id="edge1026" class="relation dashed-line" marker-end="url(#dependencyEnd)"></path><path d="M419.69140625,176.8439217804085L662.6868489583334,183.2345181503404C905.6822916666666,189.62511452027232,1391.6731770833333,202.40630726013615,1634.6686197916667,215.46877863006807C1877.6640625,228.53125,1877.6640625,241.875,1877.6640625,255.21875C1877.6640625,268.5625,1877.6640625,281.90625,1877.6640625,295.25C1877.6640625,308.59375,1877.6640625,321.9375,1877.6640625,335.28125C1877.6640625,348.625,1877.6640625,361.96875,1879.6091574778818,372.8072916666667C1881.5542524557638,383.6458333333333,1885.4444424115275,391.9791666666667,1887.3895373894093,396.1458333333333L1889.334632367291,400.3125" id="edge1027" class="relation dashed-line" marker-end="url(#dependencyEnd)"></path><path d="M365.6171875,18.972255350073425L433.9654947916667,24.98729612506119C502.3138020833333,31.00233690004895,639.0104166666666,43.03241845002447,707.3587239583334,55.71933422501223C775.70703125,68.40625,775.70703125,81.75,775.70703125,95.09375C775.70703125,108.4375,775.70703125,121.78125,775.70703125,132.61979166666666C775.70703125,143.45833333333334,775.70703125,151.79166666666666,775.70703125,155.95833333333334L775.70703125,160.125" id="edge1028" class="relation" marker-start="url(#extensionStart)"></path><path d="M1156.1796875,270.25L1156.1796875,274.4166666666667C1156.1796875,278.5833333333333,1156.1796875,286.9166666666667,1181.783203125,295.9160894552091C1207.38671875,304.9155122437515,1258.59375,314.581024487503,1284.197265625,319.41378060937876L1309.80078125,324.2465367312545" id="edge1029" class="relation" marker-start="url(#extensionStart)"></path><path d="M1782.4453125,270.25L1782.4453125,274.4166666666667C1782.4453125,278.5833333333333,1782.4453125,286.9166666666667,1723.158203125,296.81349052203285C1663.87109375,306.7103143773991,1545.296875,318.1706287547981,1486.009765625,323.9007859434976L1426.72265625,329.63094313219716" id="edge1030" class="relation" marker-start="url(#aggregationStart)"></path><path d="M1309.80078125,337.1269469334282L1108.2180989583333,343.4912057778568C906.6354166666666,349.8554646222854,503.4700520833333,362.58398231114273,296.13258837090166,373.1149078222381C88.79512465846994,383.6458333333333,77.28556181693989,391.9791666666667,71.53078039617486,396.1458333333333L65.77599897540983,400.3125" id="edge1031" class="relation dashed-line" marker-end="url(#dependencyEnd)"></path><path d="M1309.80078125,339.00637225718L1214.837890625,345.05739354765C1119.875,351.1084148381199,929.94921875,363.21045741906,834.986328125,373.43335370952997C740.0234375,383.65625,740.0234375,392,740.0234375,396.171875L740.0234375,400.34375" id="edge1032" class="relation dashed-line" marker-end="url(#dependencyEnd)"></path><path d="M1309.80078125,340.283192705072L1241.5657552083333,346.12141058756C1173.3307291666667,351.959628470048,1036.8606770833333,363.636064235024,968.6256510416666,373.64094878417865C900.390625,383.6458333333333,900.390625,391.9791666666667,900.390625,396.1458333333333L900.390625,400.3125" id="edge1033" class="relation dashed-line" marker-end="url(#dependencyEnd)"></path><path d="M1309.80078125,343.23678783180844L1270.5162760416667,348.58273985984033C1231.2317708333333,353.9286918878723,1152.6627604166667,364.62059594393617,1113.3782552083333,374.1332146386347C1074.09375,383.6458333333333,1074.09375,391.9791666666667,1074.09375,396.1458333333333L1074.09375,400.3125" id="edge1034" class="relation dashed-line" marker-end="url(#dependencyEnd)"></path><path d="M1320.499951209992,350.3125L1307.2603760083268,354.4791666666667C1294.0208008066613,358.6458333333333,1267.5416504033308,366.9791666666667,1254.3020752016653,375.3125C1241.0625,383.6458333333333,1241.0625,391.9791666666667,1241.0625,396.1458333333333L1241.0625,400.3125" id="edge1035" class="relation dashed-line" marker-end="url(#dependencyEnd)"></path><path d="M1373.0858582162373,350.3125L1374.4231110135308,354.4791666666667C1375.7603638108249,358.6458333333333,1378.4348694054124,366.9791666666667,1379.772122202706,375.3177083333333C1381.109375,383.65625,1381.109375,392,1381.109375,396.171875L1381.109375,400.34375" id="edge1036" class="relation dashed-line" marker-end="url(#dependencyEnd)"></path><path d="M1415.5775944086652,350.3125L1428.693568257221,354.4791666666667C1441.809542105777,358.6458333333333,1468.0414898028885,366.9791666666667,1481.1574636514442,375.3125C1494.2734375,383.6458333333333,1494.2734375,391.9791666666667,1494.2734375,396.1458333333333L1494.2734375,400.3125" id="edge1037" class="relation dashed-line" marker-end="url(#dependencyEnd)"></path><path d="M1309.80078125,338.6129392215036L1202.4733072916667,344.72953268458633C1095.1458333333333,350.8461261476691,880.4908854166666,363.07931307383456,735.2734375,375.04823970132065C590.0559895833334,387.01716632880675,514.2760416666666,398.7218326576135,476.3860677083333,404.57416582201694L438.49609375,410.4264989864203" id="edge1038" class="relation dashed-line" marker-end="url(#dependencyEnd)"></path><path d="M1426.72265625,344.40494888829664L1459.7298177083333,349.55620740691387C1492.7369791666667,354.7074659255311,1558.7513020833333,365.0099829627655,1591.7584635416667,374.3279081480494C1624.765625,383.6458333333333,1624.765625,391.9791666666667,1624.765625,396.1458333333333L1624.765625,400.3125" id="edge1039" class="relation dashed-line" marker-end="url(#dependencyEnd)"></path><path d="M1426.72265625,341.174209105887L1483.1673177083333,346.86392425490584C1539.6119791666667,352.5536394039247,1652.5013020833333,363.9330697019623,1708.9459635416667,373.79465985098113C1765.390625,383.65625,1765.390625,392,1765.390625,396.171875L1765.390625,400.34375" id="edge1040" class="relation dashed-line" marker-end="url(#dependencyEnd)"></path><path d="M1426.72265625,339.33543837760106L1513.1868489583333,345.33161531466754C1599.6510416666667,351.3277922517341,1772.5794270833333,363.32014612586704,1853.927174306369,373.4829897296002C1935.274921529404,383.6458333333333,1925.042030558808,391.9791666666667,1919.92558507351,396.1458333333333L1914.8091395882122,400.3125" id="edge1041" class="relation dashed-line" marker-end="url(#dependencyEnd)"></path><path d="M1426.72265625,338.9016954190562L1524.712890625,344.97016284921347C1622.703125,351.0386302793708,1818.68359375,363.1755651396854,1916.673828125,373.41590756984266C2014.6640625,383.65625,2014.6640625,392,2014.6640625,396.171875L2014.6640625,400.34375" id="edge1042" class="relation dashed-line" marker-end="url(#dependencyEnd)"></path><path d="M1426.72265625,338.4056870896328L1541.8157552083333,344.556822574694C1656.9088541666667,350.7079580597552,1887.0950520833333,363.0102290298776,2002.1881510416667,373.32803118160547C2117.28125,383.6458333333333,2117.28125,391.9791666666667,2117.28125,396.1458333333333L2117.28125,400.3125" id="edge1043" class="relation dashed-line" marker-end="url(#dependencyEnd)"></path></svg>